<svg width="87" height="87" viewBox="0 0 87 87" fill="none" xmlns="http://www.w3.org/2000/svg">
<path d="M87 43.5224C86.9564 67.7798 67.4665 87.1828 43.012 86.9987C19.1073 86.817 -0.014522 67.3971 8.27543e-06 43.4618C0.0145385 19.3692 19.5602 -0.0483565 43.661 9.04596e-05C67.5561 0.0485374 87.0412 19.6187 86.9976 43.5224H87ZM43.3801 81.2335C64.2843 81.265 81.1855 64.3909 81.2 43.4764C81.2145 22.8259 64.3425 5.8549 43.7482 5.80161C22.8537 5.74832 5.83149 22.54 5.79032 43.2414C5.74915 64.2359 22.534 81.1996 43.3801 81.2311V81.2335ZM57.7603 56.2688C58.2785 55.0649 58.0315 53.953 57.1064 53.0253C54.1422 50.0531 51.1805 47.076 48.18 44.1377C47.6496 43.6169 47.7198 43.3553 48.2042 42.8781C51.132 39.9979 54.0284 37.0814 56.9417 34.1867C57.4939 33.6368 57.9056 33.0264 57.9903 32.2367C58.1187 31.0134 57.4987 29.8749 56.4089 29.3202C55.2562 28.734 53.9872 28.9253 53.004 29.9064C50.0495 32.8471 47.1023 35.7951 44.1817 38.7698C43.6877 39.2736 43.4213 39.3947 42.857 38.8158C39.9897 35.8726 37.0667 32.9876 34.1728 30.0711C33.6231 29.5188 33.0152 29.107 32.2233 29.0271C30.9907 28.9011 29.8573 29.5164 29.3076 30.6065C28.7264 31.7571 28.9225 33.0336 29.8985 34.0147C32.8166 36.9482 35.7299 39.8889 38.7014 42.7691C39.3577 43.4061 39.2705 43.7089 38.6699 44.2927C35.7735 47.1196 32.928 49.9998 30.0559 52.8509C29.5013 53.4007 29.0896 54.0063 29.0073 54.7984C28.8813 56.0193 29.5061 57.1626 30.5911 57.7149C31.7438 58.3011 33.0079 58.1122 33.9984 57.1263C36.9747 54.1662 39.9486 51.1988 42.8861 48.2C43.4043 47.6695 43.6683 47.7397 44.1454 48.2242C47.0248 51.1552 49.9405 54.0475 52.8321 56.9664C53.4787 57.618 54.2003 58.0468 55.4136 58.025C56.3702 57.9693 57.2856 57.3928 57.7699 56.2688H57.7603Z" fill="#D05757"/>
</svg>
