<svg width="324" height="108" viewBox="0 0 324 108" fill="none" xmlns="http://www.w3.org/2000/svg">
<path d="M21.0454 34.4477V52.575H30.5511C36.5199 52.575 40.0569 49.0822 40.0569 43.5556C40.0569 38.1174 36.2988 34.4477 30.5069 34.4477H21.0454ZM21.0454 63.6725V86H4.81921V22.2007H32.1428C48.0595 22.2007 56.6368 30.0706 56.6368 43.2461C56.6368 51.0718 52.7018 58.2343 45.7162 61.285L58.4937 86H40.278L29.3132 63.6725H21.0454ZM80.9981 86H64.772V22.2007H80.9981V86ZM88.647 67.519H104.077C104.652 71.8961 109.56 74.8141 115.573 74.8141C121.895 74.8141 126.007 71.9845 126.007 68.138C126.007 64.6009 123.31 62.8766 116.059 61.3734L107.703 59.7375C95.9421 57.4826 89.8849 51.116 89.8849 41.4333C89.8849 29.0537 100.496 21.0954 115.263 21.0954C131.224 21.0954 140.641 28.8327 140.818 40.8144H125.874C125.565 36.172 121.276 33.3866 115.44 33.3866C109.781 33.3866 106.023 35.9509 106.023 39.8417C106.023 43.2903 108.852 45.1914 115.528 46.562L123.796 48.1095C136.397 50.5412 142.056 56.2447 142.056 66.3252C142.056 79.0144 131.578 87.1053 115.131 87.1053C98.8602 87.1053 88.8238 79.8986 88.647 67.519ZM193.387 72.913V86H149.661V22.2007H193.387V35.2877H165.887V47.9769H191.752V59.9144H165.887V72.913H193.387Z" fill="white"/>
<path d="M214.419 37.371L212.905 33.1903H207.173L205.66 37.371H204.289L209.396 23.7224H210.683L215.781 37.371H214.419ZM210.011 25.3209L207.561 32.0742H212.517L210.068 25.3209H210.011ZM230.432 37.371H229.221V26.1721H229.164L224.416 37.3048H223.291L218.552 26.1721H218.495V37.371H217.285V23.7224H218.77L223.83 35.6684H223.887L228.937 23.7224H230.432V37.371ZM242.056 37.371L240.543 33.1903H234.811L233.298 37.371H231.926L237.034 23.7224H238.32L243.418 37.371H242.056ZM237.649 25.3209L235.199 32.0742H240.155L237.705 25.3209H237.649ZM244.468 37.371V36.4346L252.659 24.952V24.8952H244.733V23.7224H254.296V24.6682L246.123 36.1414V36.1981H254.409V37.371H244.468ZM261.9 23.5048C265.703 23.5048 268.105 26.2289 268.105 30.5514C268.105 34.8739 265.712 37.5885 261.9 37.5885C258.098 37.5885 255.705 34.8739 255.705 30.5514C255.705 26.2289 258.098 23.5048 261.9 23.5048ZM261.9 24.7061C258.911 24.7061 257.029 26.9666 257.029 30.5514C257.029 34.1267 258.911 36.3873 261.9 36.3873C264.889 36.3873 266.781 34.1267 266.781 30.5514C266.781 26.9666 264.889 24.7061 261.9 24.7061ZM271.397 37.371H270.12V23.7224H271.397L279.398 35.1199H279.465V23.7224H280.742V37.371H279.493L271.463 25.964H271.397V37.371ZM204.686 56.6632H205.982C206.124 58.2996 207.665 59.4157 209.803 59.4157C211.846 59.4157 213.312 58.2996 213.312 56.7673C213.312 55.4904 212.432 54.7337 210.408 54.223L208.715 53.7879C206.19 53.1447 205.064 52.0759 205.064 50.2788C205.064 48.0749 207.05 46.5048 209.737 46.5048C212.395 46.5048 214.343 48.0749 214.419 50.2409H213.123C213 48.6992 211.638 47.6777 209.699 47.6777C207.807 47.6777 206.407 48.7276 206.407 50.2315C206.407 51.4043 207.259 52.0948 209.264 52.6056L210.739 52.9839C213.482 53.6744 214.636 54.7243 214.636 56.6254C214.636 59.0184 212.707 60.5885 209.689 60.5885C206.833 60.5885 204.828 59.0089 204.686 56.6632ZM224.766 59.1981V60.371H216.528V46.7224H224.766V47.8952H217.814V52.8042H224.416V53.9581H217.814V59.1981H224.766ZM235.095 59.1981V60.371H226.97V46.7224H228.256V59.1981H235.095ZM245.045 59.1981V60.371H236.92V46.7224H238.207V59.1981H245.045ZM255.109 59.1981V60.371H246.871V46.7224H255.109V47.8952H248.157V52.8042H254.759V53.9581H248.157V59.1981H255.109ZM258.599 47.8763V53.6365H262.023C264.01 53.6365 265.163 52.5772 265.163 50.7517C265.163 48.9451 263.962 47.8763 261.976 47.8763H258.599ZM258.599 54.781V60.371H257.313V46.7224H262.127C264.795 46.7224 266.497 48.283 266.497 50.7139C266.497 52.6434 265.4 54.1 263.574 54.5729L266.885 60.371H265.372L262.231 54.781C262.184 54.781 262.089 54.781 262.023 54.781H258.599ZM267.944 56.6632H269.24C269.382 58.2996 270.924 59.4157 273.061 59.4157C275.104 59.4157 276.57 58.2996 276.57 56.7673C276.57 55.4904 275.691 54.7337 273.667 54.223L271.974 53.7879C269.448 53.1447 268.323 52.0759 268.323 50.2788C268.323 48.0749 270.309 46.5048 272.995 46.5048C275.653 46.5048 277.601 48.0749 277.677 50.2409H276.381C276.258 48.6992 274.896 47.6777 272.957 47.6777C271.066 47.6777 269.666 48.7276 269.666 50.2315C269.666 51.4043 270.517 52.0948 272.522 52.6056L273.998 52.9839C276.741 53.6744 277.895 54.7243 277.895 56.6254C277.895 59.0184 275.965 60.5885 272.948 60.5885C270.091 60.5885 268.086 59.0089 267.944 56.6632ZM210.881 83.5885C207.164 83.5885 204.799 80.8361 204.799 76.5136C204.799 72.2383 207.173 69.5048 210.881 69.5048C213.766 69.5048 216.045 71.3871 216.414 74.0544H215.119C214.74 72.087 213 70.7061 210.881 70.7061C207.987 70.7061 206.124 72.9666 206.124 76.5136C206.124 80.1078 207.987 82.3873 210.891 82.3873C213.066 82.3873 214.712 81.2239 215.119 79.3322H216.414C215.932 81.99 213.842 83.5885 210.881 83.5885ZM223.972 69.5048C227.774 69.5048 230.176 72.2289 230.176 76.5514C230.176 80.8739 227.783 83.5885 223.972 83.5885C220.169 83.5885 217.776 80.8739 217.776 76.5514C217.776 72.2289 220.169 69.5048 223.972 69.5048ZM223.972 70.7061C220.983 70.7061 219.101 72.9666 219.101 76.5514C219.101 80.1267 220.983 82.3873 223.972 82.3873C226.961 82.3873 228.852 80.1267 228.852 76.5514C228.852 72.9666 226.961 70.7061 223.972 70.7061ZM233.468 83.371H232.191V69.7224H233.468L241.47 81.1199H241.536V69.7224H242.813V83.371H241.565L233.534 71.964H233.468V83.371ZM246.663 83.371H245.376V69.7224H253.473V70.8952H246.663V76.0217H252.924V77.1757H246.663V83.371ZM263.66 82.1981V83.371H255.421V69.7224H263.66V70.8952H256.708V75.8042H263.31V76.9581H256.708V82.1981H263.66ZM267.15 70.8763V76.6365H270.574C272.56 76.6365 273.714 75.5772 273.714 73.7517C273.714 71.9451 272.513 70.8763 270.526 70.8763H267.15ZM267.15 77.781V83.371H265.863V69.7224H270.678C273.345 69.7224 275.048 71.283 275.048 73.7139C275.048 75.6434 273.95 77.1 272.125 77.5729L275.435 83.371H273.922L270.782 77.781C270.734 77.781 270.64 77.781 270.574 77.781H267.15ZM285.395 82.1981V83.371H277.157V69.7224H285.395V70.8952H278.443V75.8042H285.045V76.9581H278.443V82.1981H285.395ZM288.876 83.371H287.599V69.7224H288.876L296.878 81.1199H296.944V69.7224H298.221V83.371H296.972L288.942 71.964H288.876V83.371ZM306.317 83.5885C302.6 83.5885 300.236 80.8361 300.236 76.5136C300.236 72.2383 302.61 69.5048 306.317 69.5048C309.202 69.5048 311.482 71.3871 311.851 74.0544H310.555C310.176 72.087 308.436 70.7061 306.317 70.7061C303.423 70.7061 301.56 72.9666 301.56 76.5136C301.56 80.1078 303.423 82.3873 306.327 82.3873C308.502 82.3873 310.148 81.2239 310.555 79.3322H311.851C311.368 81.99 309.278 83.5885 306.317 83.5885ZM322 82.1981V83.371H313.761V69.7224H322V70.8952H315.048V75.8042H321.65V76.9581H315.048V82.1981H322Z" fill="white"/>
</svg>
