<svg width="87" height="87" viewBox="0 0 87 87" fill="none" xmlns="http://www.w3.org/2000/svg">
<path d="M86.9977 40.7766V46.214C86.866 47.2765 86.7502 48.3413 86.6003 49.4015C85.3605 58.0922 81.8679 65.7636 76.0251 72.3134C69.3216 79.8304 60.99 84.5276 51.0597 86.3235C49.4519 86.6141 47.8237 86.7775 46.2024 87H40.7637C40.2301 86.7457 39.651 86.857 39.0947 86.7957C29.941 85.7786 21.7797 82.3913 14.9218 76.2297C3.45184 65.9248 -1.5031 52.9908 0.395305 37.6958C1.82819 26.1422 7.38036 16.6887 16.4886 9.44413C25.6582 2.14964 36.188 -0.876678 47.8396 0.217609C56.4642 1.02811 64.1737 4.2474 70.8703 9.73927C79.2202 16.5865 84.4158 25.3453 86.3301 35.9999C86.614 37.5823 86.7797 39.1851 87 40.7789L86.9977 40.7766ZM43.4797 81.5626C64.4416 81.5626 81.5205 64.5104 81.5568 43.5396C81.5954 22.5597 64.4825 5.43023 43.4842 5.43023C22.5222 5.43023 5.43653 22.4893 5.40701 43.451C5.37749 64.4332 22.4882 81.5604 43.4797 81.5626ZM63.4833 27.3682C62.2435 26.9232 61.242 27.325 60.336 28.2309C52.211 36.3699 44.0701 44.4931 35.9541 52.6412C35.4727 53.1248 35.2275 53.1929 34.712 52.6662C32.0165 49.9123 29.2711 47.2106 26.5552 44.4795C25.7763 43.6962 24.8839 43.3125 23.7916 43.585C21.6843 44.1094 21.0348 46.6226 22.6176 48.2187C26.0874 51.7195 29.5822 55.193 33.0702 58.678C34.5939 60.2013 36.0472 60.2081 37.5596 58.6984C40.187 56.0784 42.8098 53.4517 45.4326 50.8295C51.6614 44.6021 57.8903 38.3701 64.126 32.1472C64.7505 31.5251 65.2251 30.8554 65.2341 29.9382C65.25 28.8007 64.5529 27.7519 63.4856 27.3704L63.4833 27.3682Z" fill="#57D087"/>
</svg>
